# xmcd
# 
# Track frame offsets:
#     150
#     12238
#     21830
#     44235
#     69561
#     80996
#     88074
#     98798
#     107829
#     119834
#     128570
#     165095
# 
# Disc length: 2619
# 
# Revision: 0
# Processed by: cddbd v1.5.2PL0 Copyright (c) Steve Scherf et al.
# Submitted via: fre:ac v1.0.17
# 
DISCID=a10a390c
DTITLE=Deuter - Aum
DYEAR=1972
DGENRE=New Age
TTITLE0=Phoenix
TTITLE1=Aum
TTITLE2=Soham
TTITLE3=Offener Himmel I - Gleichzeitig
TTITLE4=Offener Himmel II
TTITLE5=Sattwa
TTITLE6=Morning Glory
TTITLE7=Soma
TTITLE8=Surat Shabda
TTITLE9=Abraxas
TTITLE10=Susani
TTITLE11=The Key
EXTD=
EXTT0=
EXTT1=
EXTT2=
EXTT3=
EXTT4=
EXTT5=
EXTT6=
EXTT7=
EXTT8=
EXTT9=
EXTT10=
EXTT11=
PLAYORDER=
